<mxfile host="app.diagrams.net" modified="2023-05-18T08:45:37.799Z" agent="Mozilla/5.0 (Windows NT 10.0; Win64; x64) AppleWebKit/537.36 (KHTML, like Gecko) Chrome/112.0.0.0 Safari/537.36" version="21.3.2" etag="hejK7_M42wGBWySJJpmN" type="github">
  <diagram name="第 1 页" id="Q9NjMOZwwmmxEnrD8pWd">
    <mxGraphModel>
      <root>
        <mxCell id="0" />
        <mxCell id="1" parent="0" />
      </root>
    </mxGraphModel>
  </diagram>
</mxfile>
